<svg xmlns="http://www.w3.org/2000/svg" xmlns:xlink="http://www.w3.org/1999/xlink" fill="none" version="1.1" width="886.5869140625" height="911.9525146484375" viewBox="0 0 886.5869140625 911.9525146484375"><path d="M186.26591518933594,463.70651292800903C185.38030349933592,476.536489928009,186.96490031933592,485.24624092800906,195.82439706933593,493.911741928009C198.23014156933593,496.264152928009,203.25198756933594,500.78909392800904,209.87538356933595,505.776245928009C216.48872956933593,510.76004492800905,224.82895256933594,516.0837059280091,233.43396756933595,520.238052928009C242.00844556933595,524.4329879280091,250.79334256933595,527.455268928009,257.4947505693359,528.9612739280091C260.79975156933597,529.868949928009,263.61949156933593,530.259834928009,265.56033356933597,530.606590928009C267.5045165693359,530.933044928009,268.60053256933594,531.120025928009,268.60053256933594,531.120025928009C268.60053256933594,531.120025928009,269.70325456933597,531.266212928009,271.6748195693359,531.456527928009C273.64954356933595,531.5721819280091,276.46239456933597,532.102554928009,279.9303285693359,532.054878928009C286.85221356933596,532.4321749280091,296.27839356933595,531.660446928009,305.8369835693359,529.6786279280091C315.4428735693359,527.6999629280091,324.82492356933597,523.9061589280091,332.50355356933596,520.350154928009C336.2427835693359,518.4191709280091,339.574963569336,516.549457928009,342.38781356933595,515.0162509280091C345.0751635693359,513.326614928009,347.19587356933596,511.90216492800903,348.61755356933594,510.96395892800905C349.92399356933595,510.09017992800904,351.12187356933595,509.20299992800904,352.21769356933595,508.302028928009C353.25264356933593,507.329738928009,354.185733569336,506.344055928009,355.03744356933595,505.33768092800904C356.74086356933594,503.325126928009,358.1048435693359,501.231010928009,359.22114356933594,498.994049928009C361.3351635693359,494.41492892800903,362.3565035693359,489.10821192800904,363.17079356933596,482.859706928009C356.6595035693359,482.846111928009,351.6680135693359,482.951477928009,347.14503356933596,483.753818928009C344.8411135693359,484.08697892800905,342.6898535693359,484.627403928009,340.5793735693359,485.473995928009C339.52395356933596,485.89896592800903,338.48230356933595,486.398607928009,337.43376356933595,486.986709928009C336.34465356933595,487.48989692800905,335.25196356933594,488.07799992800904,334.135663569336,488.764808928009C332.9379735693359,489.516042928009,331.1396035693359,490.644765928009,328.9103235693359,492.04183092800906C326.6164135693359,493.26236592800905,323.8815935693359,494.720703928009,320.87527356933595,496.318527928009C314.7371335693359,499.09945392800904,307.40447356933595,502.114837928009,300.1466735693359,503.610607928009C292.90562356933594,505.09968192800903,285.89882656933594,505.765998928009,280.72766856933595,505.48386792800903C278.1386335693359,505.57902992800905,276.02126356933593,505.12686992800906,274.5418475693359,505.07584092800903C273.06243156933596,504.95014192800903,272.23120856933593,504.85163592800905,272.23120856933593,504.85163592800905C272.23120856933593,504.85163592800905,271.40668456933594,504.70189692800903,269.93750756933593,504.43335792800906C268.4716875693359,504.154579928009,266.3509675693359,503.882690928009,263.82301356933596,503.14839992800904C258.72651656933596,501.99248892800904,251.92994656933593,499.61288892800906,245.08608256933593,496.24050992800903C238.22843156933595,492.905366928009,231.36762956933595,488.53350892800904,225.81975956933593,484.37245992800905C220.26854356933595,480.21485992800905,215.95244256933594,476.41071292800905,213.83172656933593,474.476356928009C209.89567556933594,470.930600628009,206.14285056933593,468.81266262800904,201.80990456933594,467.316852328009C197.47685856933595,465.80065082800905,192.49912546933595,465.052743928009,186.26591518933594,463.70651292800903C186.26591518933594,463.70651292800903,186.26591518933594,463.70651292800903,186.26591518933594,463.70651292800903Z" fill-rule="evenodd" fill="#333333" fill-opacity="1"/><path d="M450.5496980357969,486.61418010925905C450.3359305067969,493.005368709259,451.06206452679686,498.36655870925904,452.84007711679686,503.09876670925905C454.6655793167969,507.81737970925906,457.61763761679686,512.012314709259,462.6157422167969,515.826805709259C465.3404412167969,517.859649709259,470.85091421679687,521.901699709259,478.23440921679685,525.902961709259C485.5840182167969,529.931618709259,494.8539692167969,533.823929709259,504.1952472167969,536.224018709259C513.5128822167969,538.7159197092591,522.8100352167969,539.647423709259,529.6235502167968,539.623585709259C533.0371092167969,539.7425847092591,535.8330002167969,539.5489167092591,537.7771912167968,539.395832709259C539.7215732167969,539.263237709259,540.8175962167969,539.188568709259,540.8175962167969,539.188568709259C540.8175962167969,539.188568709259,541.9203112167969,539.1647307092591,543.8408582167968,538.862106709259C545.7545012167968,538.559681709259,548.5506062167968,538.287597709259,551.8623072167969,537.624824709259C558.4721072167969,536.271694709259,567.3350172167968,533.929333709259,575.9603272167968,530.169418709259C593.4690272167969,522.9624527092591,609.3285072167969,510.68657370925905,614.3231372167969,506.50168470925905C618.9784972167969,502.61252470925905,621.6557972167968,498.475315709259,623.4813672167969,493.95047070925904C625.1065972167969,489.255657709259,625.7784272167969,484.03389690925906,626.1415372167969,477.76168870925903C619.7216672167968,478.122042949259,614.6965072167968,478.46879297925904,610.2921172167969,479.66884150925904C605.7317172167968,480.65131190925905,601.9008672167969,482.606039009259,597.7238772167968,485.84584470925904C593.2381272167969,489.354187709259,579.5060772167969,499.86232970925903,565.5502172167969,505.607610709259C558.6450872167969,508.65352870925904,551.8112672167969,510.44522570925903,546.7622602167969,511.539860709259C544.2344972167969,512.063339709259,542.1307292167969,512.253666709259,540.6784972167968,512.5154997092591C539.2227252167969,512.773796709259,538.3982012167969,512.780689709259,538.3982012167969,512.780689709259C538.3982012167969,512.780689709259,537.5736772167969,512.828171709259,536.1111982167969,512.9132847092591C534.6487272167968,513.022037709259,532.5518492167969,513.168224709259,530.0002522167969,513.045879709259C524.9003982167969,513.0492257092591,517.9919202167969,512.321636709259,510.9443432167969,510.41113670925904C503.8865202167969,508.571962709259,496.7270352167969,505.577072709259,490.9145732167969,502.411957709259C485.0818142167969,499.27757670925905,480.6027772167969,496.05140570925903,478.3463152167969,494.49778970925905C474.19984621679686,491.570752709259,470.4606192167969,489.87092970925903,466.09031621679685,488.87485870925906C461.7369172167969,487.82439070925903,456.81005571679685,487.54225970925904,450.5496980357969,486.61418010925905C450.5496980357969,486.61418010925905,450.5496980357969,486.61418010925905,450.5496980357969,486.61418010925905Z" fill-rule="evenodd" fill="#333333" fill-opacity="1"/><path d="M363.1695553320312,653.6862094143371C361.0657843320312,657.5140974143371,358.51063933203125,660.7505304143372,355.99628033203123,663.7998014143371C353.47187033203124,666.8356714143372,350.86924733203125,669.6199494143372,348.24632633203123,672.2613874143372C343.00403933203125,677.5409174143372,337.7174203320312,682.2969594143372,332.2477683320312,687.0597084143371C330.8735583320313,688.2461554143372,329.5365853320312,689.4633414143372,328.10130133203126,690.6361964143372C328.10130133203126,690.6361964143372,325.9907893320312,692.4310464143372,325.9907893320312,692.4310464143372C325.9907893320312,692.4310464143372,324.93890333203126,693.3420564143372,324.93890333203126,693.3420564143372C324.1754343320313,694.0594104143372,323.55111933203125,694.8005914143372,323.1710883320313,695.2084274143372C319.98152333203126,698.7269904143371,317.22289853203125,702.4019934143372,314.65768763203124,706.7874454143372C312.1196251320313,711.1423654143372,309.81905053203127,716.1600504143372,308.47876370203124,722.4288104143371C307.80013478203125,725.5360034143372,307.47438344203124,729.0648164143372,307.72208321103125,732.8757564143372C307.96299666203123,736.6934064143371,309.0080934320313,740.8444064143372,310.87771413203126,744.7843964143372C311.52242043203125,746.1000864143372,312.37748433203126,747.4394264143372,313.29023553203126,748.8979664143371C314.25048783203124,750.2985664143372,315.44828653203126,751.6345564143371,316.73767943203126,753.1236264143372C318.08135133203126,754.4018864143371,319.59810433203126,755.8296964143371,321.28110233203125,757.0908164143372C322.95730333203124,758.2025964143372,324.84729033203126,759.6439864143372,326.83227933203125,760.5585464143371C334.88428133203126,764.8045164143372,345.15864133203127,767.4731464143372,357.91682433203124,768.4148864143372C362.87087633203123,768.8975864143372,371.05170433203125,769.1050564143371,377.8447413320313,768.8126864143371C381.27857933203126,768.7683564143372,384.32903333203126,768.4964564143372,386.5685573320312,768.3605164143371C389.27639033203127,768.1802564143371,390.9660263320312,768.0681464143372,390.9660263320312,768.0681464143372C390.9660263320312,768.0681464143372,391.48871633203123,768.0476364143371,392.49982433203127,767.9286464143372C393.50757633203125,767.8573264143372,394.87508433203124,767.2589764143372,396.58521233203123,766.6606264143371C398.40390033203124,765.9263264143372,399.50662233203127,765.4198164143372,400.97578433203125,764.6788064143371C402.36024433203124,763.9309264143371,403.94487033203126,763.1489564143371,405.4378813320312,762.1494764143372C411.65758533203126,758.3895564143372,418.00259533203126,752.3859964143371,421.83343533203123,747.5653264143372C427.91404533203126,739.9706164143372,431.4158653320312,732.0394164143372,434.04548533203126,724.9276054143372C435.02939533203124,721.3241204143371,436.12206533203124,717.9040684143372,436.7700653320312,714.6745224143372C437.28585533203125,711.4449844143371,437.7711153320313,708.4091114143372,438.22582533203126,705.5602114143371C438.47013533203125,702.7318044143371,438.55841533203125,700.1073074143371,438.7008553320312,697.6528404143371C438.84664533203124,695.1983724143372,438.96209533203125,692.9239884143371,438.79580533203125,690.8875924143372C438.59564533203127,686.7809224143372,438.42935533203126,683.3577084143371,438.29360533203123,680.5734374143371C437.9001653320313,677.8332904143372,437.51655533203126,675.1680114143371,437.14340533203125,672.5673564143372C436.93989533203126,671.2688034143372,436.7395353320312,669.9905434143371,436.5393553320313,668.7258764143371C436.4341453320312,668.1649594143372,436.3324753320312,667.2537464143371,436.11871533203123,666.1898424143371C435.8233753320312,665.0916604143372,435.42639533203123,663.9631274143371,435.03294533203126,662.9703524143372C432.58300533203123,657.0652874143371,429.65470533203126,652.6764854143372,426.27858533203124,648.6072484143372C419.52614533203126,640.6215624143372,411.34531533203125,635.2740846143372,403.02203333203124,632.1838560143372C400.96239433203124,631.3339739143372,398.8517223320313,630.7594457143372,396.75820133203126,630.2257067143372C394.61363933203125,629.5899864143372,392.72718033203125,629.3758205143372,390.32138033203125,628.9508735543371C390.32138033203125,628.9508735543371,388.17681933203124,628.5463392543371,388.17681933203124,628.5463392543371C388.17681933203124,628.5463392543371,387.10819233203125,628.3831546903372,387.10819233203125,628.3831546903372C386.74843633203125,628.3695563363372,386.37508433203124,628.4647049013372,386.01217633203123,628.5054999243372C384.6174773320313,628.7162727443372,382.9922563320313,629.0086592443372,381.89289133203124,629.3316192043371C379.77552833203123,629.9707380143371,377.71588133203124,630.6880460143371,375.68678333203127,631.6705222143372C371.6863093320312,633.5436835143372,367.60426733203127,636.1919379143371,364.83200433203126,640.3224284143372C361.99197433203125,644.3951134143372,361.5882793320312,649.6203194143371,363.1695553320312,653.6862094143371C363.72258733203125,649.2564264143372,366.21311233203124,645.9963284143372,369.08703233203124,644.5277254143372C371.92726133203126,642.9809084143371,375.23896033203124,642.5525684143372,378.52011833203125,642.5389744143372C380.1453323320312,642.5015794143371,381.81487233203126,642.6477294143372,383.40619633203124,642.8211054143371C384.6582563320312,643.0386744143372,385.22823333203127,643.3684454143372,385.9442063320313,644.0619544143372C387.08100133203124,644.7996544143372,388.7775343320312,645.6223664143372,390.02624533203124,646.5776354143371C391.38351433203127,647.4819134143372,392.7338793320313,648.3523054143371,393.95204933203127,649.3925674143371C399.00441733203127,653.2815304143371,403.23914333203123,657.8710964143372,406.64915433203123,663.3578874143371C408.31179533203124,666.0300604143372,409.86589533203124,669.2596024143371,410.7209553320313,671.9418224143371C410.73120533203127,672.0813104143372,410.61909533203124,671.7140694143371,410.7583953320312,672.9582444143372C410.87364533203123,674.0292444143372,410.98909533203124,675.1136364143372,411.1043553320312,676.2116204143372C411.37249533203124,678.4011004143372,411.6473353320313,680.6447564143372,411.93222533203124,682.9530344143371C412.02049533203126,685.2002374143372,412.12905533203127,687.9571274143372,412.26145533203123,691.2650804143371C412.41078533203125,692.9375844143372,412.2886353320313,694.6782464143372,412.15959533203124,696.5548554143371C412.0340853320313,698.4279104143371,411.97636533203126,700.4643024143371,411.80338533203127,702.6025544143372C411.46411533203127,704.6797334143372,411.1043553320312,706.8894964143371,410.7209553320313,709.2452624143372C410.25618533203124,711.5535434143371,409.44860533203126,713.8448724143371,408.82424533203124,716.3742074143372C407.00202133203123,721.1030664143371,404.76604433203124,726.2397544143372,401.05735733203124,730.8429064143372C398.68544033203125,733.7290464143372,394.90207633203124,737.3530164143372,391.3732683320312,739.5389464143371C390.51820333203125,740.1542464143372,389.66983833203125,740.5384264143372,388.9268723320313,740.9769964143371C388.24144733203127,741.3609864143372,387.33535733203126,741.7248864143371,387.47799633203124,741.6941564143372C387.47799633203124,741.6941564143372,387.50498933203124,741.7146364143372,387.4610523320313,741.7146364143372C387.4610523320313,741.7146364143372,387.34894533203124,741.7146364143372,387.34894533203124,741.7146364143372C386.77896833203124,741.7451664143372,385.95779433203126,741.7894964143371,384.94333633203127,741.8438764143372C382.91423833203123,741.9423864143372,380.10119633203124,742.1634464143372,377.09153033203125,742.1667964143371C371.00757233203126,742.3776064143372,364.03801733203125,742.1463064143371,360.04778333203126,741.8336364143372C349.56635633203126,741.1162864143372,342.89547733203125,738.9472964143372,339.31229033203124,737.0708864143371C335.64773033203124,735.1363564143371,335.12858533203126,733.8683364143371,334.6094403320312,733.0424464143372C334.0392643320313,731.7980564143371,333.55755233203126,729.9352464143371,333.97149133203123,727.0558094143372C334.31410633203126,724.2748804143372,335.24719033203127,721.0520334143372,336.53668233203126,717.9143074143371C337.7853913320312,714.7866214143371,339.37671433203127,711.5978704143372,340.93750333203127,708.8305364143372C341.15481533203126,708.4532404143372,341.13097333203126,708.4158104143371,341.0427093320312,708.4260564143372C341.0427093320312,708.4260564143372,341.95550133203125,707.1682824143371,341.95550133203125,707.1682824143371C341.95550133203125,707.1682824143371,343.74029933203127,704.6694874143371,343.74029933203127,704.6694874143371C344.93128233203123,703.0308764143372,346.01370633203123,701.3107074143371,347.08588433203124,699.6143724143371C351.35450333203124,692.8254784143371,354.90380833203125,685.7883424143372,357.74384333203125,678.2277224143371C359.16553133203126,674.4506654143372,360.39729733203126,670.5378614143372,361.35757033203123,666.4414374143372C362.30089533203125,662.3619584143372,363.1015853320313,658.0955014143371,363.1695553320312,653.6862094143371C363.1695553320312,653.6862094143371,363.1695553320312,653.6862094143371,363.1695553320312,653.6862094143371Z" fill-rule="evenodd" fill="#333333" fill-opacity="1"/><path d="M160.4291384248047,295.5990605354309C149.02486942480468,303.6390442354309,142.52013942480468,309.9962465354309,138.99465542480468,323.0641445354309C137.06735442480468,330.1489605354309,132.0624532248047,351.6205185354309,128.90683362480468,371.6542285354309C127.25098462480469,381.6490175354309,126.11767032480469,391.2970505354309,125.31688542480468,398.4191105354309C124.97417022480468,401.9920505354309,124.68915612480468,404.9292105354309,124.49574812480469,406.97585053543094C124.3362709248047,409.0291905354309,124.24466292480469,410.18510053543093,124.24466292480469,410.18510053543093C124.24466292480469,410.18510053543093,124.1530429248047,411.3443605354309,123.99356372480469,413.3977005354309C123.81372839480468,415.4474905354309,123.59656775480468,418.4017905354309,123.42691051480469,422.0088305354309C122.96205086980468,429.1988405354309,122.76185125480468,439.0167105354309,122.97561880980469,449.3515505354309C123.15206259480469,459.68285053543093,124.17339702480469,470.5648205354309,125.48315002480469,479.7878905354309C126.16856052480469,484.3975505354309,126.8743429248047,488.5960205354309,127.6819052248047,492.10454053543094C128.36731622480468,495.6189905354309,129.0765066248047,498.4383205354309,129.6363568248047,500.3119805354309C130.57966562480468,503.77164053543095,131.6926088248047,506.78407053543094,133.24326842480468,509.4280505354309C134.76002142480468,512.0740405354309,136.3004964248047,514.418560535431,138.3974514248047,516.4655905354309C140.4401284248047,518.5185405354309,142.5778064248047,520.3882405354309,145.12940442480468,522.074720535431C147.73537842480468,523.7415205354309,150.56871642480468,525.280240535431,153.6428074248047,526.769700535431C154.29769942480468,523.2824705354309,154.9051094248047,520.2385105354309,155.3529324248047,517.462510535431C155.85178742480468,514.656950535431,156.3675844248047,512.014920535431,156.53722042480467,509.5206605354309C156.6627194248047,507.0480705354309,156.8664364248047,504.4986405354309,156.6221354248047,501.9531605354309C156.34039642480468,499.4194905354309,155.99088242480468,496.7006105354309,155.27826642480468,493.7394105354309C154.85073042480468,492.15538053543094,154.2841054248047,489.74170053543094,153.7243724248047,486.6888905354309C153.04899042480469,483.6768505354309,152.45872142480468,480.0020405354309,151.86135842480468,475.9464105354309C150.7349984248047,467.81798053543093,149.78477442480468,458.0850205354309,149.6015474248047,448.63066053543093C149.3844314248047,439.19008053543087,149.5168284248047,430.11674053543095,149.92387042480468,423.3958305354309C150.05961842480468,420.0404005354309,150.24974042480468,417.27642053543093,150.4091284248047,415.3523305354309C150.5482234248047,413.4246905354309,150.62644242480468,412.3402905354309,150.62644242480468,412.3402905354309C150.62644242480468,412.3402905354309,150.71805542480467,411.2559005354309,150.87744342480468,409.3316105354309C151.0709174248047,407.4075205354309,151.3524574248047,404.6437305354309,151.69172442480468,401.2816005354309C152.4857124248047,394.56068453543094,153.5919764248047,385.4497155354309,155.1968954248047,375.9342735354309C158.2506944248047,356.88644853543093,163.0451624248047,336.3020715354309,164.67726942480468,329.47909253543094C167.6735384248047,316.8464115354309,165.16942242480468,308.6874075354309,160.4291384248047,295.5990605354309C160.4291384248047,295.5990605354309,160.4291384248047,295.5990605354309,160.4291384248047,295.5990605354309Z" fill-rule="evenodd" fill="#333333" fill-opacity="1"/><path d="M128.76085327050782,526.7699589729309C122.43278527050782,543.1218919729309,117.23108327050781,556.774620972931,112.80642327050782,571.324695972931C108.34098027050781,585.8442269729309,104.7578092705078,601.353195972931,100.77766427050781,620.8734749729309C100.11938427050781,624.1845779729309,99.18966867050781,628.5020689729309,97.74417777050782,634.6281789729309C97.00787737050781,637.6809889729309,96.13244107050781,641.1757189729309,94.97877507050781,644.9458889729309C94.75143437050781,645.741258972931,94.52409367050781,646.5537689729309,94.2933640705078,647.3798689729309C94.14067457050781,648.0633289729309,93.98457577050782,648.7568289729309,93.82510857050781,649.4639389729309C93.54685807050781,650.7827889729309,93.28559087050782,652.125668972931,93.04128697050781,653.4923889729309C92.5391042705078,656.239228972931,92.10138657050781,659.1389589729309,91.68403067050781,662.239458972931C89.88905768850782,675.8444389729309,89.23078734050782,691.8157989729309,90.60840553050781,709.316818972931C92.10138657050781,726.780028972931,95.82706117050782,745.7746589729309,102.99338227050781,764.5230289729309C106.52903127050782,773.9090289729309,111.1063442705078,783.1019289729309,116.23002827050782,792.0623789729309C121.61831127050782,800.8710989729309,127.53263427050781,809.4887389729308,134.3595502705078,817.3242189729309C147.74563227050783,833.259128972931,164.05982227050782,846.2308689729309,180.59466527050782,856.5546589729308C182.67459827050783,857.8333089729309,184.74448427050783,859.1021089729309,186.80412327050783,860.3630689729309C188.86711927050783,861.6101989729309,191.0114672705078,862.6484689729309,193.09494727050782,863.7872589729309C197.28200727050782,866.0096489729309,201.3843372705078,868.2773489729309,205.5885372705078,870.0721789729309C207.66847727050782,871.019838972931,209.73480727050782,871.961578972931,211.7775072705078,872.8974289729309C211.7775072705078,872.8974289729309,214.92646727050783,874.3277889729309,214.92646727050783,874.3277889729309C215.5372272705078,874.6725489729308,217.0132972705078,875.0823689729309,217.2745472705078,875.1927189729308C217.2745472705078,875.1927189729308,218.84557727050782,875.712828972931,218.84557727050782,875.712828972931C222.9681972705078,877.0643889729308,226.9653272705078,878.2957489729308,230.8844272705078,879.4857489729309C246.53703727050782,884.1807289729309,260.74409727050784,887.9240989729309,272.7727172705078,890.8301089729309C296.8327172705078,896.5929589729309,312.0150272705078,899.3492389729308,312.0150272705078,899.3492389729308C312.0150272705078,899.3492389729308,315.1870372705078,899.950138972931,320.9557672705078,901.0455589729308C326.7402472705078,902.066128972931,335.13129727050784,903.5437889729309,345.6107472705078,905.1081289729309C356.0981272705078,906.6133389729309,368.6521772705078,908.317568972931,382.78437727050783,909.5607589729309C396.90473727050784,910.8867189729309,412.5835372705078,911.8658789729309,429.2552972705078,911.9407389729308C462.50431727050784,912.165378972931,500.04630727050784,909.2356889729309,535.3108072705079,898.1296989729309C544.0919672705079,895.341888972931,552.7450372705077,892.2073089729308,561.0139572705078,888.3930089729308C565.2183672705078,886.682858972931,569.2119272705079,884.5136989729309,573.1739972705078,882.4055789729309C575.3195372705078,881.187988972931,576.5134772705078,880.8313889729309,580.4499372705078,878.3607789729309C582.3491672705078,876.5383589729308,584.2385972705079,874.7257689729308,586.1161972705079,872.925018972931C598.0870772705077,861.1590289729309,608.8404072705079,849.6176189729309,618.3406572705078,838.8091789729309C639.3547472705078,814.9855689729309,650.7917672705078,798.7669389729309,656.7713172705078,790.3325489729309C668.8682372705078,773.2489889729309,676.2171172705079,758.1612589729309,681.4972072705078,743.3099389729309C682.7265772705078,739.5350489729309,683.8614672705078,735.7956389729309,684.9253072705078,732.0561989729309C686.0601972705078,728.3542189729309,686.5979772705078,724.3527489729308,687.3684272705078,720.4775689729308C689.0528672705078,712.7638689729309,689.2873672705078,704.3601989729309,689.7621572705078,695.7319489729309C685.1794572705078,703.350498972931,681.5070372705078,710.1496289729309,676.9539372705078,716.3165289729309C674.7473272705079,719.416828972931,672.9524672705078,722.5478689729309,670.6630972705078,725.4856089729309C668.4505772705078,728.4487789729309,666.3089772705079,731.4139289729309,664.2166272705078,734.4302789729309C655.4413572705079,746.3203889729309,646.7784572705078,758.957218972931,635.1700572705079,775.006428972931C629.4387972705078,782.9108289729309,618.5711772705079,798.2625689729309,598.3648872705078,821.1345489729309C589.2547172705079,831.4898689729309,578.8402872705078,842.647098972931,567.4939372705078,853.8023389729309C566.4260672705078,854.8347189729309,565.3542972705078,855.8749689729309,564.2707072705077,856.9191889729309C563.0590072705079,857.5555389729309,561.8414472705078,858.1978189729309,560.6159772705078,858.840088972931C557.1937672705078,860.654658972931,553.7695772705079,862.5499589729309,550.0675772705079,864.035518972931C542.8665272705077,867.367098972931,535.2083572705078,870.1372089729309,527.3808172705078,872.6314389729309C495.9306172705078,882.600618972931,460.9025372705078,885.5165389729309,429.44447727050783,885.2998089729309C413.6789672705078,885.244628972931,398.71534727050783,884.3304789729309,385.1919372705078,883.0714989729308C371.6626472705078,881.899258972931,359.57352727050784,880.2718789729308,349.4683972705078,878.8296789729309C339.3672172705078,877.3362689729308,331.2579072705078,875.9157689729309,325.6645172705078,874.9405189729309C320.0869172705078,873.886478972931,317.0193172705078,873.309208972931,317.0193172705078,873.309208972931C317.0193172705078,873.309208972931,302.3374472705078,870.6238389729309,279.02966727050784,865.0126989729309C267.38778727050783,862.1854889729309,253.5946672705078,858.5347289729309,238.55637727050782,854.0091889729309C234.81023727050783,852.8664889729309,230.9624672705078,851.680418972931,227.1280672705078,850.4194989729309C227.1280672705078,850.4194989729309,225.70992727050782,849.9427189729308,225.70992727050782,849.9427189729308C224.9837172705078,849.6925089729309,225.42483727050782,849.8658789729309,225.09226727050782,849.7220789729308C225.09226727050782,849.7220789729308,222.43880727050782,848.5044589729309,222.43880727050782,848.5044589729309C220.5998272705078,847.6631789729308,218.7437172705078,846.8120689729309,216.87064727050782,845.9589889729309C213.0669972705078,844.343418972931,209.43632727050783,842.3082289729309,205.70733727050782,840.3301389729309C203.8579172705078,839.3135089729309,201.92732727050782,838.3914789729308,200.10864727050782,837.2861989729308C198.2933072705078,836.169068972931,196.47106727050783,835.0460789729309,194.6387972705078,833.915188972931C180.06862627050782,824.7932089729309,165.98371927050783,813.565058972931,154.59973927050783,799.962828972931C148.7669832705078,793.281918972931,143.7721482705078,785.9429589729309,139.17115427050783,778.464098972931C134.83456427050783,770.8276389729309,130.9190022705078,763.0158189729309,127.89574027050782,754.9695389729309C121.76095227050781,738.9164089729309,118.50008627050781,722.4255089729309,117.17335727050781,707.089918972931C115.9585362705078,691.7409189729309,116.52870927050782,677.5273589729309,118.07590327050781,665.7002889729309C118.43565927050781,663.0178789729309,118.80546427050781,660.519268972931,119.21940227050781,658.2415489729309C119.60614927050781,656.0658589729309,120.1117022705078,653.5365189729309,120.37984627050781,652.8227189729309C121.81513227050782,648.0905089729309,122.76870327050781,644.1911089729309,123.56939327050782,640.8392189729309C125.1234782705078,634.1352389729309,126.07016027050781,629.5797589729309,126.7250522705078,626.1155709729309C130.67804727050782,605.6671299729309,131.9165112705078,589.6007959729309,132.01147427050782,574.2177279729309C132.05895627050782,558.8448989729309,130.82049227050783,544.1927709729309,128.76085327050782,526.7699589729309C128.76085327050782,526.7699589729309,128.76085327050782,526.7699589729309,128.76085327050782,526.7699589729309Z" fill-rule="evenodd" fill="#333333" fill-opacity="1"/><path d="M218.11460876464844,403.8196604553528C235.58590676464843,403.2518504553528,250.01006276464844,403.53063245535276,265.07239176464844,402.94253245535276C280.1209217646484,402.40880645535276,295.7327267646484,400.9912494553528,315.62005576464844,398.74404945535275C322.34865876464846,397.94178645535277,333.30844876464846,396.6091464553528,356.18848876464847,394.9059144553528C360.87775876464843,394.5999434553528,367.1719387646484,394.19546145535276,373.9785587646484,393.7535504553528C380.79206876464843,393.49506045535276,388.11783876464847,393.2164754553528,394.8566887646484,392.9579854553528C401.59199876464845,392.6011834553528,407.7539787646484,392.7438264553528,412.22275876464846,392.6486644553528C416.6943187646484,392.6078824553528,419.47820876464846,392.5806944553528,419.47820876464846,392.5806944553528C419.47820876464846,392.5806944553528,428.80509876464845,392.4547984553528,440.70504876464844,392.92744645535277C446.6530787646484,393.1347104553528,453.25518876464844,393.2164754553528,459.64846876464844,393.53938945535276C466.04172876464844,393.92692645535277,472.23798876464843,394.3042184553528,477.3939987646484,394.61708545535276C481.21616876464844,394.8481884553528,484.8570987646484,395.06924445535276,488.32069876464845,395.27650845535277C491.77442876464846,395.6096674553528,495.0528387646484,395.9258844553528,498.15784876464846,396.2249604553528C504.36988876464846,396.8233074553528,509.89429876464845,397.35033245535277,514.7764387646484,397.8194374553528C517.0224487646485,398.0607874553528,520.2259987646485,398.2782944553528,520.0467087646484,398.38034845535276C522.0760087646485,398.8799934553528,523.9555487646485,399.3423964553528,525.6932787646484,399.7707144553528C529.1805287646484,400.6886294553528,532.0924487646485,401.4534574553528,534.4606187646484,402.0756454553528C553.6089587646484,407.30769045535277,568.6434787646484,411.1186334553528,582.9412087646484,414.6167144553528C590.1560487646484,416.3028034553528,597.0379187646485,418.11478845535277,604.2448587646484,420.1342354553528C611.2824287646484,422.40173345535277,618.7770187646485,424.5604744553528,626.1376787646484,429.31651745535277C621.8249087646484,421.5756304553528,615.6621587646484,415.66367045535276,609.6727487646484,410.3061264553528C603.5277287646484,405.1589974553528,597.1699387646485,400.5662804553528,590.3589587646484,396.6329864553528C576.7429387646484,388.59637145535277,561.5153387646485,382.1949774553528,541.4784687646484,376.5075034553528C538.9901287646485,375.83438635535276,535.9343387646484,375.0048766553528,532.2658187646484,374.0122141553528C530.4059887646484,373.5430717553528,528.3904887646484,373.03992315535277,526.2193187646485,372.4926042553528C526.2193187646485,372.4926042553528,525.0312987646485,372.2104325553528,525.0312987646485,372.2104325553528C524.5052687646485,372.09145255535276,523.9871087646484,371.9282813553528,523.4157587646484,371.90448145535277C522.7241987646485,371.8364901553528,522.0208287646485,371.76851845535276,521.3056787646485,371.6971187553528C520.1274887646484,371.5815277553528,518.9138687646484,371.4625477553528,517.6588287646484,371.33677005535276C512.6289187646485,370.8438277553528,506.93507876464844,370.2862830553528,500.53980876464846,369.6573777553528C497.3402587646484,369.3446097553528,493.9593987646484,369.0148582553528,490.40516876464847,368.6680846553528C486.83515876464844,368.4505162553528,483.0858887646484,368.2159450553528,479.14945876464844,367.9745746553528C473.83189876464843,367.6516146553528,467.4504387646484,367.26067515535277,460.86603876464847,366.8595261553528C454.2777087646484,366.53996872535276,447.4766087646484,366.4787548153528,441.34931876464844,366.29517811535277C429.0868387646484,365.8702310953528,419.48411876464843,366.0640234353528,419.48411876464843,366.0640234353528C419.48411876464843,366.0640234353528,416.61747876464847,366.0708158723528,412.0123587646484,366.0844143403528C407.40800876464846,366.1524051253528,401.0628087646485,365.97904132335276,394.12041876464843,366.3121986353528C387.17451876464844,366.5569674953528,379.62493876464845,366.8255206353528,372.60433876464845,367.0736881553528C365.5908487646484,367.54622915535276,359.09965876464844,367.9813816553528,354.2679587646484,368.3077363553528C330.6821787646484,370.09592295535276,319.3762387646484,371.5203332553528,312.43386076464844,372.41783525535277C291.92907676464847,374.9471096553528,276.08990876464844,378.8294144553528,261.45531076464846,383.8233814553528C246.85105676464843,388.8615594553528,233.33285376464843,395.0861874553528,218.11460876464844,403.8196604553528C218.11460876464844,403.8196604553528,218.11460876464844,403.8196604553528,218.11460876464844,403.8196604553528Z" fill-rule="evenodd" fill="#333333" fill-opacity="1"/><path d="M103.16978118408204,701.2804004768371C99.65791318408203,684.1298204768372,97.85282118408203,669.8242804768372,95.14498518408203,655.0734904768372C92.57644618408203,640.2950404768371,89.12565618408203,625.1087604768371,84.79930918408203,605.7141704768371C83.54055018408204,600.4853504768372,81.99651318408203,592.5513304768372,80.05567218408203,582.7338904768371C79.22444518408203,577.7965704768371,78.31166118408203,572.3844604768371,77.33444218408204,566.5861804768372C77.33444218408204,566.5861804768372,77.24282818408203,566.0404104768371,77.24282818408203,566.0404104768371C77.15791318408203,565.6168204768371,77.03576318408203,564.6849404768371,76.95439118408203,564.0288704768371C76.76426918408202,562.5847204768371,76.57769218408203,561.1326904768372,76.38776418408203,559.6767004768371C76.00771518408203,556.7647704768372,75.62766218408203,553.8291604768372,75.24091518408203,550.8718904768372C74.35531418408203,544.9711904768371,73.97526318408202,538.9305404768371,73.39839218408203,532.8210404768372C73.12689818408202,529.7652604768372,72.85540618408203,526.6878104768372,72.58411018408204,523.5907004768371C72.44481818408204,520.4876104768372,72.30572118408203,517.3628504768371,72.16327618408204,514.2184404768371C71.90872718408204,507.92960047683715,71.45400818408203,501.56586047683714,71.59664918408203,495.1233504768372C71.66777218408203,488.68475047683717,71.46090318408203,482.16342047683713,71.75268718408203,475.59280047683717C72.08190718408203,469.0241704768372,72.41092918408204,462.39252047683715,72.74349818408203,455.69388047683714C74.01584818408203,442.35760047683715,75.20348118408202,428.75735047683713,77.63982418408203,415.1334804768372C78.17591118408203,411.7171904768372,78.71200218408202,408.2909904768372,79.25143818408203,404.85107047683715C79.98790018408204,401.45047047683715,80.72415918408203,398.03812047683715,81.46376818408203,394.61395047683715C82.20022918408203,391.1877404768372,82.93983818408202,387.75372047683715,83.67964518408203,384.3098104768372C83.67964518408203,384.3098104768372,84.79930918408203,379.13611047683713,84.79930918408203,379.13611047683713C84.79930918408203,379.13611047683713,86.22454418408202,374.0273704768372,86.22454418408202,374.0273704768372C88.12125018408203,367.20068047683714,90.02819818408203,360.3364904768372,91.94519418408203,353.44675047683717C94.27298018408203,346.68109047683714,96.61415818408203,339.88788047683715,98.96223418408204,333.07297047683716C101.11014218408204,326.17731047683714,104.20472318408204,319.6126104768372,106.92260718408204,312.88638047683713C109.73210118408203,306.19165047683714,112.35501118408203,299.3964504768372,115.77526818408204,292.93622047683715C119.00560018408203,286.3951404768372,122.24262218408204,279.83835047683715,125.48320018408204,273.27759047683713C125.48320018408204,273.27759047683713,136.46328718408205,254.21994047683717,136.46328718408205,254.21994047683717C138.33299218408203,251.06367047683716,140.04312118408203,247.81090047683716,142.04168718408204,244.73149047683717C142.04168718408204,244.73149047683717,148.15618118408202,235.57008047683715,148.15618118408202,235.57008047683715C152.27547118408205,229.49007047683716,156.19792118408202,223.28003047683717,160.46299118408203,217.31625047683715C164.92154118408203,211.48645047683715,169.37339118408204,205.66058047683717,173.81853118408202,199.84654047683716C176.05451118408203,196.95331047683715,178.21601118408202,194.00256047683715,180.50635118408204,191.16055047683716C180.50635118408204,191.16055047683716,187.69637118408204,182.89952047683715,187.69637118408204,182.89952047683715C192.48080118408203,177.39560047683716,197.25143118408204,171.90881047683715,202.00530118408204,166.44232047683715C206.88804118408203,161.08791047683715,212.12026118408204,156.07693047683716,217.12180118408205,150.90614047683715C222.23859118408203,145.84413047683717,227.05355118408204,140.53073047683716,232.33997118408203,135.73724047683717C237.65024118408203,130.96426047683715,242.92620118408203,126.21846047683715,248.17678118408202,121.49984047683716C258.425731184082,111.79408047683715,269.56322118408207,103.33939047683715,280.25742118408203,94.72826447683715C282.94280118408204,92.58312247683716,285.61240118408205,90.44821247683716,288.268231184082,88.32356347683715C288.268231184082,88.32356347683715,292.25985118408204,85.14820147683716,292.25985118408204,85.14820147683716C292.25985118408204,85.14820147683716,296.428761184082,82.18384647683716,296.428761184082,82.18384647683716C301.97486118408204,78.23696147683715,307.46775118408203,74.32750747683716,312.90745118408205,70.45529247683716C318.333351184082,66.59351347683716,323.700201184082,62.772324476837156,329.009861184082,58.99546447683716C333.543251184082,55.88137447683716,339.02631118408203,52.81161947683716,344.30051118408204,50.112255476837156C355.036111184082,44.71707947683716,366.084971184082,40.33517547683716,377.07075118408204,36.955898476837156C388.064431184082,33.56322547683716,398.99702118408203,31.16648747683716,409.63804118408206,29.42247047683716C414.983161184082,28.71536847683716,420.214061184082,27.87902147683716,425.40351118408205,27.545862476837158C430.57133118408206,26.991842476837157,435.660351184082,26.82181547683716,440.64100118408203,26.67227747683716C460.57935118408204,26.118063476837158,478.79774118408204,28.106775476837157,494.63019118408204,31.11545847683716C496.612191184082,31.472458476837158,498.562721184082,31.82256147683716,500.47968118408204,32.169312476837156C502.37897118408205,32.621475476837155,504.242771184082,33.06693347683716,506.075021184082,33.50195347683716C509.735661184082,34.38597947683716,513.262311184082,35.23926947683716,516.645121184082,36.05512647683716C523.306341184082,38.132301476837156,529.5006211840821,39.709641476837156,534.930491184082,41.68810747683716C540.360361184082,43.666771476837155,545.228671184082,45.33591847683716,549.405491184082,46.940445476837155C553.535041184082,48.68446047683716,557.0399811840821,50.163284476837156,559.877081184082,51.36333147683716C565.584721184082,53.67495747683716,568.494701184082,55.184521476837155,568.494701184082,55.184521476837155C568.494701184082,55.184521476837155,571.440131184082,56.61901947683716,576.992131184082,59.32507747683716C582.630801184082,61.840816476837155,590.5037311840821,66.45737547683716,600.717231184082,72.04976747683716C620.769781184082,83.92451547683716,648.900281184082,102.66618047683716,679.6273911840821,130.12791047683717C683.423961184082,133.60924047683716,687.303291184082,137.16505047683717,691.263311184082,140.79591047683715C693.243351184082,142.61125047683717,695.247081184082,144.44353047683717,697.264531184082,146.29630047683716C698.4939611840821,147.35370047683716,699.729251184082,148.41780047683716,700.966561184082,149.48524047683716C700.966561184082,149.48524047683716,703.977001184082,152.14699047683715,703.977001184082,152.14699047683715C712.072521184082,159.40518047683716,720.203561184082,167.55724047683717,728.304941184082,176.17860047683715C744.4270111840821,193.55728047683715,760.367871184082,213.20050047683716,775.2290111840821,234.88840047683715C805.038031184082,278.18536047683716,830.181651184082,330.01917047683713,845.1019411840821,386.1657404768372C852.436901184082,414.26660047683714,856.8777511840821,443.38211047683717,858.934641184082,472.6079704768372C859.267581184082,479.93115047683716,859.6005911840821,487.25046047683713,859.9295711840821,494.55789047683714C859.967051184082,501.87717047683714,859.685311184082,509.19446047683715,859.586741184082,516.4920704768372C859.4922511840821,520.1408704768371,859.4981111840821,523.7876604768371,859.324711184082,527.4266404768372C859.324711184082,527.4266404768372,858.3928311840821,538.3119504768372,858.3928311840821,538.3119504768372C857.722971184082,545.5524304768371,857.258001184082,552.7928504768372,856.448251184082,559.9722304768371C855.358711184082,567.1259804768372,854.2731411840821,574.2522004768372,853.1934911840821,581.3468604768372C852.643811184082,584.8952004768372,852.0980311840821,588.4316404768372,851.5523711840821,591.9622804768371C850.781991184082,595.4553804768371,850.013621184082,598.9387204768371,849.2472011840821,602.4141204768372C847.720341184082,609.3649904768372,846.203251184082,616.2842404768371,844.694101184082,623.1543604768372C843.054881184082,629.9968304768372,840.8797711840821,636.6738304768371,839.023871184082,643.3705404768372C837.0260711840821,650.0336904768371,835.345531184082,656.7343104768372,833.136911184082,663.2241204768371C830.820011184082,669.6843904768372,828.522711184082,676.0914904768372,826.249151184082,682.4393904768372C825.112311184082,685.6153604768372,823.979441184082,688.7755704768372,822.856511184082,691.9240104768371C821.7630111840821,695.0822104768372,820.6203111840821,698.2029404768372,819.239201184082,701.2213104768372C816.802071184082,706.9033804768371,814.386601184082,712.5223404768371,812.000681184082,718.0841704768371C809.382331184082,724.1385504768372,806.964911184082,729.9624604768371,804.555371184082,735.3608404768372C801.905461184082,740.6566804768372,799.432871184082,745.5999104768372,797.1789011840821,750.1116304768371C792.686901184082,759.1409904768371,789.065681184082,766.4188804768371,786.6502111840821,771.2695304768372C781.931651184082,780.0980204768372,777.5971711840821,787.9215704768371,774.0291811840821,795.4418304768371C770.346871184082,802.9029504768372,767.456611184082,810.0961304768372,764.4264611840821,817.0154404768372C758.174991184082,830.7398104768372,753.212161184082,844.3913004768372,747.443371184082,861.0591404768371C760.184641184082,849.1808504768371,770.756721184082,838.8668804768372,780.9603311840821,827.2210704768372C785.968511184082,821.3361204768372,790.446781184082,814.8285504768371,795.269841184082,807.7476804768371C799.988411184082,800.6017504768372,805.024241184082,792.8471104768372,809.995061184082,783.7703904768372C812.522771184082,778.7622104768371,816.317391184082,771.2399904768372,821.0241811840821,761.9169904768372C823.364811184082,757.2496304768372,825.935861184082,752.1311004768371,828.688241184082,746.6499604768371C831.2022211840821,741.0487704768371,833.729931184082,735.0002404768371,836.458691184082,728.7035504768371C838.939151184082,722.9249304768372,841.447151184082,717.0813604768372,843.978891184082,711.1766404768372C845.407291184082,708.0421104768371,846.605171184082,704.7854004768371,847.7479311840821,701.4912104768372C848.922131184082,698.2108204768372,850.106211184082,694.9166904768372,851.2942611840821,691.6008904768372C853.664371184082,684.9790004768372,856.0581711840821,678.2960804768371,858.469671184082,671.5581104768372C860.7748511840821,664.7786304768372,862.555851184082,657.7588504768372,864.642281184082,650.7902204768371C866.588871184082,643.7763704768372,868.846691184082,636.7940104768371,870.570621184082,629.6166404768371C872.1546711840821,622.4037504768371,873.752451184082,615.1455704768372,875.3581611840821,607.8459504768372C876.1580911840821,604.1951904768372,876.9599711840821,600.5365604768372,877.763801184082,596.8680404768371C878.3981411840821,593.1660804768371,878.9163311840821,589.4306004768372,879.501471184082,585.6970204768371C880.634341184082,578.2280904768371,881.775091184082,570.7255204768371,882.917791184082,563.1955004768372C883.776801184082,555.6279304768372,884.279241184082,547.9835804768371,884.974681184082,540.3432004768372C884.974681184082,540.3432004768372,885.9479411840821,528.8609004768372,885.9479411840821,528.8609004768372C886.135141184082,525.0190404768372,886.135141184082,521.1594204768371,886.2336511840821,517.3057304768372C886.344001184082,509.59244047683717,886.625681184082,501.86139047683713,886.5824011840821,494.1244504768372C886.2336511840821,486.38943047683716,885.882941184082,478.64267047683717,885.534251184082,470.89389047683716C883.363101184082,439.96188047683717,878.6345911840821,409.12045047683716,870.862191184082,379.38434047683717C855.067151184082,319.94559047683714,828.4912211840821,265.31210047683714,797.139531184082,219.79868047683715C781.4922511840821,196.99074047683715,764.7475711840821,176.35869047683715,747.701541184082,157.99767047683716C739.103581184082,148.86307047683715,730.531261184082,140.25864047683717,721.6476511840821,132.30025047683716C721.6476511840821,132.30025047683716,718.2826011840821,129.32919047683717,718.2826011840821,129.32919047683717C718.2826011840821,129.32919047683717,716.558661184082,127.85371047683716,716.558661184082,127.85371047683716C716.558661184082,127.85371047683716,715.628671184082,127.07175047683715,715.628671184082,127.07175047683715C715.628671184082,127.07175047683715,715.3844111840821,126.87119047683716,715.3844111840821,126.87119047683716C715.242561184082,126.75218047683715,715.4967111840821,126.96300047683715,715.404121184082,126.88812047683716C715.404121184082,126.88812047683716,715.571601184082,127.04120047683716,715.571601184082,127.04120047683716C713.467411184082,125.11357047683715,711.386911184082,123.20642047683715,709.324101184082,121.31287047683716C705.194591184082,117.53601047683716,701.153691184082,113.83047047683716,697.1975811840821,110.20985047683716C665.146491184082,81.58884447683715,635.4221911840821,61.74230647683716,614.083011184082,49.139965476837155C603.193731184082,43.160236476837156,594.8026811840821,38.27848847683716,588.746281184082,35.55863647683716C582.790411184082,32.662254476837155,579.634161184082,31.12905147683716,579.634161184082,31.12905147683716C579.634161184082,31.12905147683716,576.519291184082,29.52117747683716,570.368351184082,27.00878747683716C567.3106111840821,25.716932476837158,563.533761184082,24.12599947683716,559.0870411840821,22.246042476837157C554.577281184082,20.50537547683716,549.303051184082,18.68665147683716,543.4259711840821,16.55172947683716C537.5469111840821,14.420198476837157,530.795051184082,12.666018476837158,523.550671184082,10.425711476837158C519.8742711840821,9.470423176837159,516.006781184082,8.596741176837158,512.013191184082,7.624450676837158C510.011481184082,7.148511376837158,507.97236118408205,6.665774776837158,505.897711184082,6.172832476837158C503.79749118408205,5.792092776837158,501.657871184082,5.401127376837159,499.48475118408203,5.006792976837159C482.137181184082,1.7092022768371582,462.05897118408205,-0.5005191531628418,439.96720118408206,0.0978056788371582C434.44672118408204,0.2609841868371582,428.806041184082,0.4581611168371582,423.06489118408206,1.0632842768371582C417.30997118408203,1.4406352768371582,411.488041184082,2.344924476837158,405.54594118408204,3.1438178768371583C393.707041184082,5.071375876837158,381.52732118408204,7.740042176837158,369.233311184082,11.530556476837159C356.93931118408204,15.314292476837158,344.564521184082,20.196056476837157,332.28824118408204,26.36295947683716C326.10972118408205,29.54836547683716,320.161721184082,32.80844547683716,313.809821184082,37.14976547683716C308.37012118408205,41.01843647683716,302.86738118408203,44.93143547683716,297.30945118408204,48.88502147683716C252.82445118408202,80.13741347683715,207.04406118408204,119.14053047683716,167.42231118408205,165.59236047683717C167.42231118408205,165.59236047683717,159.89971118408204,174.24763047683714,159.89971118408204,174.24763047683714C157.49746118408203,177.22557047683716,155.217151184082,180.31937047683715,152.869281184082,183.35858047683715C148.20367118408203,189.46422047683717,143.53115818408202,195.57990047683717,138.85214218408203,201.70641047683716C134.36306018408203,207.97556047683716,130.21659118408203,214.50871047683717,125.88019518408203,220.90988047683715C125.88019518408203,220.90988047683715,119.45007318408203,230.56580047683715,119.45007318408203,230.56580047683715C117.34985318408204,233.81071047683716,115.52761818408203,237.23885047683717,113.55624418408203,240.56648047683717C109.69151318408203,247.27698047683717,105.83013118408203,253.98549047683716,101.97544818408204,260.68216047683717C98.54494818408203,267.62119047683717,95.12134518408203,274.54837047683714,91.70089318408203,281.46375047683716C88.10430518408202,288.29245047683713,85.30485918408203,295.4836704768372,82.32907818408202,302.5645404768372C79.44826118408203,309.68680047683716,76.19763918408204,316.64157047683716,73.90394218408203,323.93719047683715C71.42011818408203,331.15796047683716,68.94319318408203,338.35507047683717,66.47966418408203,345.52063047683714C64.44725218408203,352.82022047683716,62.42494618408203,360.08826047683715,60.41280918408203,367.31888047683714C60.41280918408203,367.31888047683714,58.91303818408203,372.73492047683715,58.91303818408203,372.73492047683715C58.91303818408203,372.73492047683715,57.71864918408203,378.21207047683714,57.71864918408203,378.21207047683714C56.93143818408203,381.85889047683713,56.14761718408203,385.4978304768372,55.36720418408203,389.1249704768372C54.58677098408203,392.7481704768372,53.80974678408203,396.36542047683713,53.036110884082035,399.9689004768372C52.46266648408203,403.6059004768372,51.88922168408203,407.23303047683714,51.31918568408203,410.85031047683714C48.75395558408203,425.27603047683715,47.47813728408203,439.65253047683717,46.15142108408203,453.75323047683713C45.79853385408203,460.8242204768372,45.45243597408203,467.83417047683713,45.106334494082034,474.76926047683713C44.80434469408203,481.70828047683716,45.00793104608203,488.58621047683715,44.94006833108203,495.38144047683716C44.80434252408203,502.18057047683715,45.272596714082034,508.8851004768372,45.54065531408203,515.5108604768371C45.69334721408203,518.8247704768371,45.84603715408203,522.1149304768371,45.99533638408203,525.3894704768371C46.28036018408203,528.6501504768372,46.56538428408203,531.8891004768371,46.84701548408203,535.1044904768372C47.45778508408203,541.5332004768371,47.871742484082034,547.8988604768372,48.79467918408203,554.1049804768371C49.20185898408203,557.2159404768372,49.605649984082035,560.3032804768371,50.00603298408203,563.3668804768372C50.20622398408203,564.8957504768372,50.40641498408203,566.4226704768372,50.60662648408203,567.9416504768371C50.69144298408203,568.6312304768371,50.82039258408203,569.6104704768371,50.90861748408203,570.0596304768371C50.90861748408203,570.0596304768371,51.007008984082034,570.6309804768372,51.007008984082034,570.6309804768372C52.04870888408203,576.7228404768372,53.01914688408203,582.4107704768371,53.90474888408203,587.5982704768371C55.96777818408203,597.9122304768372,57.640610184082036,606.2343804768371,59.01483818408203,611.7173504768372C63.77200918408203,632.0477904768371,69.77796318408204,647.4133304768371,76.75087118408203,661.3248904768371C83.84928118408203,675.1713904768371,91.99622318408203,687.7254604768372,103.16978118408204,701.2804004768371C103.16978118408204,701.2804004768371,103.16978118408204,701.2804004768371,103.16978118408204,701.2804004768371Z" fill-rule="evenodd" fill="#333333" fill-opacity="1"/><path d="M41.669388,411.1841435432434C35.151199,417.0925955432434,29.922308,423.5245865432434,25.304373,430.0279585432434C20.675995,436.55845854324343,16.814653,443.3373035432434,13.469008,450.5952995432434C6.8184443,465.1114845432434,2.1121454,481.6607135432434,0.61577797,503.0983895432434C0.50380397,504.9137195432434,0.29682338,507.0147405432434,0.20520742,509.5269325432434C0.15091738,512.0393235432434,0.086447544,514.9662435432434,0.0084052924,518.4337835432434C-0.045885015,525.3621635432435,0.14073798,534.4559835432434,1.223151,546.6434035432434C1.4946022,550.5902835432435,2.2987819,555.8290435432434,2.9841924,561.5165835432434C3.798552,567.1802935432434,5.0099058,573.2008235432434,5.9837327,578.7660235432434C7.259551,584.2563635432434,8.4200144,589.2707035432434,9.2648926,592.9082835432434C9.6584978,594.7371935432434,10.126753,596.1752335432434,10.398207,597.1849635432434C10.686624,598.1911435432435,10.846109,598.7520635432434,10.846109,598.7520635432434C10.846109,598.7520635432434,11.361868,600.6217835432434,12.210155,603.6917235432434C13.075403,606.7545935432433,14.164605,611.0543335432434,15.803491,615.7256635432434C17.408449,620.4048735432434,18.959108,625.6909035432434,20.89311,630.6400335432434C22.813654,635.5930935432434,24.676474,640.3924835432434,26.223862,644.3939535432435C38.547813,674.1714435432434,49.046185,691.0363135432434,53.952557,700.1208835432434C56.622955,704.6069935432433,59.323895,708.7384935432434,61.902679,712.6828335432434C64.50531,716.6094035432434,66.965294,720.3586735432434,69.666229,723.7277235432434C75.007027,730.5051835432434,79.913589,736.7684335432434,85.386597,742.2889435432435C90.8395,747.8231835432434,96.231125,753.1052535432434,102.15904,758.1982435432434C108.17838,763.2163135432434,114.51688,768.2284835432433,121.41512,773.5657335432434C117.78445,765.5450735432435,114.43887,758.2711235432434,111.06609,751.3754535432433C107.79163,744.4108235432434,104.72758,737.6589635432434,101.21906,731.0194135432434C97.690254,724.3897135432435,94.388603,717.4388735432434,90.228745,710.3047835432434C88.111366,706.7564735432434,86.156944,702.9461035432435,83.944611,699.0431535432434C81.759468,695.1205135432434,79.340073,691.0953935432434,76.846199,686.8082935432434C72.295845,678.1669935432434,62.357403,662.0862935432434,50.868217,634.2238135432434C49.422688,630.4902935432434,47.688919,626.0100835432434,45.897224,621.3860335432435C44.075191,616.7738035432434,42.636559,611.8877435432435,41.109459,607.5501535432434C39.552021,603.2157335432435,38.530674,599.2552535432434,37.709694,596.4301935432434C36.902111,593.6017735432434,36.409958,591.8746935432434,36.409958,591.8746935432434C36.409958,591.8746935432434,36.264164,591.3579235432434,36.006264,590.4266035432433C35.761963,589.4915635432434,35.334427,588.1555835432434,34.99181,586.4728235432434C34.235058,583.1209435432434,33.19677,578.5041835432435,32.056618,573.4490635432434C31.20845,568.3531635432435,30.105537,562.8322735432434,29.369276,557.6648535432435C28.765213,552.4873835432434,27.998415,547.7108435432434,27.723572,544.1345635432434C26.729414,533.0689635432434,26.539486,524.8589835432434,26.566477,518.6174035432434C26.617508,515.4966235432435,26.664988,512.8654135432434,26.702225,510.60128054324343C26.770195,508.3404775432434,26.946529,506.46051854324344,27.031443,504.8321535432434C28.178295,485.5940095432434,30.088593,470.6630945432434,32.059967,456.2182315432434C33.07127,448.9941215432434,34.126503,441.8823155432434,35.58543,434.5051235432434C37.058151,427.1281295432434,38.696957,419.4110999432434,41.669388,411.1841435432434C41.669388,411.1841435432434,41.669388,411.1841435432434,41.669388,411.1841435432434Z" fill-rule="evenodd" fill="#333333" fill-opacity="1"/><path d="M712.2058029296875,366.45593309402466C734.9380879296875,389.56925209402465,749.0145259296875,415.6473200940247,755.3855439296875,445.8287130940247C768.6280029296875,508.5029130940246,762.1903919296875,570.1226830940246,744.4949039296876,630.9031330940247C739.4914019296875,647.9709130940246,732.6032109296875,664.4003630940247,726.6991349296875,681.2514330940246C724.7311099296875,686.8270530940247,722.2961459296876,688.9391130940246,715.7082139296875,686.7443230940246C698.2794949296875,680.9322530940246,698.1293639296875,681.3341630940247,700.0973889296874,662.8596830940246C704.8339309296875,618.4081730940246,707.3191339296875,573.8561830940247,703.6998899296875,529.2045330940247C699.4606249296875,476.80330309402467,686.6876639296875,425.45592909402467,665.8905029296875,377.20867609402467C672.7619257296875,382.8865360940247,680.2003499296875,388.01161809402464,686.3712519296874,394.37632809402464C706.6685749296875,415.27889709402467,716.9425429296875,441.4237520940247,721.9958919296876,469.51161309402465C725.9486889296875,491.4024330940247,727.9334639296875,513.6447330940247,730.7019729296875,535.7532530940247C731.3022919296875,540.6271030940246,731.5359649296875,545.5514030940246,732.5866619296875,550.3750430940247C742.1432879296875,487.8682930940247,725.2648319296875,428.3428540940247,712.2058029296875,366.45593309402466C712.2058029296875,366.45593309402466,712.2058029296875,366.45593309402466,712.2058029296875,366.45593309402466Z" fill="#333333" fill-opacity="1"/></svg>